{
	"asset":{
		"generator":"Khronos glTF Blender I/O v5.2.39",
		"version":"2.0"
	},
	"scene":0,
	"scenes":[
		{
			"name":"Scene",
			"nodes":[
				0,
				1
			]
		}
	],
	"nodes":[
		{
			"mesh":0,
			"name":"pinStripe"
		},
		{
			"name":"piProfile"
		}
	],
	"materials":[
		{
			"doubleSided":true,
			"name":"pin",
			"pbrMetallicRoughness":{
				"baseColorFactor":[
					0.800000011920929,
					0.800000011920929,
					0.800000011920929,
					1
				],
				"metallicFactor":0,
				"roughnessFactor":0.20000000298023224
			}
		},
		{
			"doubleSided":true,
			"name":"PinStripe",
			"pbrMetallicRoughness":{
				"baseColorFactor":[
					0.8000000715255737,
					0.03831929340958595,
					0.030947890132665634,
					1
				],
				"metallicFactor":0,
				"roughnessFactor":0.20000000298023224
			}
		}
	],
	"meshes":[
		{
			"name":"BezierCurve.001",
			"primitives":[
				{
					"attributes":{
						"POSITION":0,
						"NORMAL":1,
						"TEXCOORD_0":2,
						"COLOR_0":3
					},
					"indices":4,
					"material":0
				},
				{
					"attributes":{
						"POSITION":5,
						"NORMAL":6,
						"TEXCOORD_0":7,
						"COLOR_0":8
					},
					"indices":9,
					"material":1
				}
			]
		}
	],
	"accessors":[
		{
			"bufferView":0,
			"componentType":5126,
			"count":850,
			"max":[
				0.05630096420645714,
				0.3286784291267395,
				0.05630095675587654
			],
			"min":[
				-0.056300967931747437,
				0.00028891395777463913,
				-0.056300967931747437
			],
			"type":"VEC3"
		},
		{
			"bufferView":1,
			"componentType":5126,
			"count":850,
			"type":"VEC3"
		},
		{
			"bufferView":2,
			"componentType":5126,
			"count":850,
			"type":"VEC2"
		},
		{
			"bufferView":3,
			"componentType":5126,
			"count":850,
			"type":"VEC3"
		},
		{
			"bufferView":4,
			"componentType":5123,
			"count":4320,
			"type":"SCALAR"
		},
		{
			"bufferView":5,
			"componentType":5126,
			"count":108,
			"max":[
				0.023699374869465828,
				0.2663487195968628,
				0.02369937300682068
			],
			"min":[
				-0.023699380457401276,
				0.2144637256860733,
				-0.023699378594756126
			],
			"type":"VEC3"
		},
		{
			"bufferView":6,
			"componentType":5126,
			"count":108,
			"type":"VEC3"
		},
		{
			"bufferView":7,
			"componentType":5126,
			"count":108,
			"type":"VEC2"
		},
		{
			"bufferView":8,
			"componentType":5126,
			"count":108,
			"type":"VEC3"
		},
		{
			"bufferView":9,
			"componentType":5123,
			"count":384,
			"type":"SCALAR"
		}
	],
	"bufferViews":[
		{
			"buffer":0,
			"byteLength":10200,
			"byteOffset":0,
			"target":34962
		},
		{
			"buffer":0,
			"byteLength":10200,
			"byteOffset":10200,
			"target":34962
		},
		{
			"buffer":0,
			"byteLength":6800,
			"byteOffset":20400,
			"target":34962
		},
		{
			"buffer":0,
			"byteLength":10200,
			"byteOffset":27200,
			"target":34962
		},
		{
			"buffer":0,
			"byteLength":8640,
			"byteOffset":37400,
			"target":34963
		},
		{
			"buffer":0,
			"byteLength":1296,
			"byteOffset":46040,
			"target":34962
		},
		{
			"buffer":0,
			"byteLength":1296,
			"byteOffset":47336,
			"target":34962
		},
		{
			"buffer":0,
			"byteLength":864,
			"byteOffset":48632,
			"target":34962
		},
		{
			"buffer":0,
			"byteLength":1296,
			"byteOffset":49496,
			"target":34962
		},
		{
			"buffer":0,
			"byteLength":768,
			"byteOffset":50792,
			"target":34963
		}
	],
	"buffers":[
		{
			"byteLength":51560,
			"uri":"BowlingPin.bin"
		}
	]
}
